<?xml version="1.0" encoding="UTF-8"?>
<svg version="1.1" xmlns="http://www.w3.org/2000/svg" width="432" height="407">
<path d="M0 0 C0 0.66 0 1.32 0 2 C0.66 2 1.32 2 2 2 C3.19140625 3.625 3.19140625 3.625 4.5625 6 C5.0884375 6.90105469 5.614375 7.80210938 6.15625 8.73046875 C7.52767712 11.16242743 8.88006711 13.60092279 10.21875 16.05078125 C10.60603271 16.75396484 10.99331543 17.45714844 11.39233398 18.18164062 C12.15783899 19.57561677 12.91550868 20.97393173 13.66430664 22.37695312 C15.96455092 26.5702732 18.01708233 30.21966651 22 33 C26.25914723 33.93753826 30.53033516 34.20531838 34.875 34.5 C44.01203871 35.27484346 52.72679968 36.40833001 61.625 38.625 C71.25556425 40.98303425 80.58432487 41.61815079 90.48681641 41.72314453 C91.52499512 41.73587402 92.56317383 41.74860352 93.6328125 41.76171875 C95.00783936 41.7611145 95.00783936 41.7611145 96.41064453 41.76049805 C100.81023823 42.16743765 103.35643468 43.339933 106.4375 46.5 C110.58632181 50.54763104 114.43993011 51.10818444 120.0625 51.25 C125.36744732 51.2257695 125.36744732 51.2257695 130 49 C133.08612449 43.55252268 133.32982943 38.93146087 131.6875 32.98828125 C130.99360147 30.87326172 130.99360147 30.87326172 129.8125 28.4375 C127.77653669 22.32961006 130.36889335 16.49100518 133 11 C133.66 11 134.32 11 135 11 C135.37125 9.88625 135.37125 9.88625 135.75 8.75 C137.57974171 4.72456824 139.63314126 2.70009838 143.5625 0.6875 C152.32321659 -1.06464332 161.06753923 1.13780189 169 5 C173.15477571 8.20263961 175.76116535 11.88140411 177 17 C177.6966657 23.38451168 177.80125449 30.52249787 174 36 C172.3125 37.02734375 172.3125 37.02734375 170.4375 37.875 C167.91255403 39.07582356 167.15513954 39.65229426 165.99609375 42.25 C165.0018326 46.45216033 164.72193916 49.1812653 166.125 53.3125 C167.053125 54.6428125 167.053125 54.6428125 168 56 C168.804375 57.299375 168.804375 57.299375 169.625 58.625 C174.59089352 63.59089352 180.84418566 65.05034053 187.5625 66.5 C195.41403703 68.22239085 201.228049 70.02213644 205.89453125 76.828125 C209.20598104 83.33401221 210.31702775 88.72919386 210.3125 96 C210.57724676 106.77095727 213.67884125 115.61987924 218.6328125 125.13671875 C220.98573179 130.064404 221.1798927 134.57836908 221.25 140 C221.28867187 141.794375 221.28867187 141.794375 221.328125 143.625 C220.97351582 147.27240867 220.21035305 149.11116928 218 152 C215.6875 153.0625 215.6875 153.0625 213 153 C209.6875 151.25 209.6875 151.25 207 149 C207 148.01 207 147.02 207 146 C206.34 146 205.68 146 205 146 C203.53330309 144.11337742 202.19549784 142.23591478 200.875 140.25 C200.4819165 139.66887451 200.08883301 139.08774902 199.68383789 138.48901367 C198.86291158 137.27316146 198.04501365 136.05525966 197.22998047 134.83544922 C196.04075268 133.06081354 194.8371987 131.29684967 193.62890625 129.53515625 C188 121.25735294 188 121.25735294 188 119 C187.34 119 186.68 119 186 119 C186 118.34 186 117.68 186 117 C179.60103894 117.33678742 175.74113137 118.62735034 171 123 C170.071875 124.2375 170.071875 124.2375 169.125 125.5 C163.80607542 131.75755832 155.71520308 134.01885182 148 136 C148 136.66 148 137.32 148 138 C144.45553833 140.47915037 140.73338124 141.95966314 136.6875 143.4375 C131.59018097 145.34971459 126.82925731 147.49913461 122 150 C120.33882058 150.68022433 118.67310709 151.34966556 117 152 C116.96559814 152.5983667 116.93119629 153.1967334 116.89575195 153.81323242 C115.72975327 172.6373321 112.6551389 185.35434065 100.22265625 200.109375 C93.15760149 208.74636126 93.82782777 217.79363977 94.875 228.4375 C97.57998105 262.03461877 95.86281758 295.68601595 94.06762695 329.28662109 C91.64635845 365.10274117 91.64635845 365.10274117 100.125 399.61328125 C101 402 101 402 101 406 C95.43099727 405.65870088 92.61766337 403.35801784 88.8125 399.5625 C84.63817864 395.50901564 84.63817864 395.50901564 80 392 C80 391.34 80 390.68 80 390 C79.01 389.67 78.02 389.34 77 389 C72.41175215 384.53688618 67.31182211 379.42577168 66.71484375 372.8671875 C67.06042128 368.18058807 68.57552007 364.91054783 70.5 360.6875 C76.34413241 346.61485236 75.09672722 335.03253697 70.15795898 320.90356445 C66.75790527 310.91751508 66.88830147 302.16338946 70 292 C72.03628003 285.20517906 72.38382426 278.89396769 72.375 271.8125 C72.37628906 270.80767578 72.37757813 269.80285156 72.37890625 268.76757812 C72.36660591 262.59125233 72.36660591 262.59125233 70 257 C69.21625 256.443125 68.4325 255.88625 67.625 255.3125 C59.77752433 248.39924763 59.14089968 235.90841728 57.2890625 226.21679688 C54.43725381 211.9807519 49.46237412 205.22397114 37.5234375 196.96484375 C33.41243 193.76385803 33.41243 193.76385803 32 191 C31.65232432 188.07135688 31.71730779 185.19363605 31.8125 182.25 C31.83280273 181.06083984 31.83280273 181.06083984 31.85351562 179.84765625 C31.88874777 177.89814436 31.94255179 175.94898374 32 174 C31.3908374 174.04092773 30.7816748 174.08185547 30.15405273 174.12402344 C23.97006129 174.48568496 20.32425027 173.09774561 15 170 C15 169.34 15 168.68 15 168 C14.41347656 167.76152344 13.82695312 167.52304688 13.22265625 167.27734375 C10.54326759 165.73751934 9.26050426 164.04619037 7.4375 161.5625 C5.03239154 158.30215846 5.03239154 158.30215846 2.28515625 155.33984375 C1 154 1 154 1 152 C0.45472656 151.84144531 -0.09054688 151.68289062 -0.65234375 151.51953125 C-6.56121247 149.69131717 -11.69864172 147.17078876 -17 144 C-17 143.34 -17 142.68 -17 142 C-17.59683594 141.73316406 -18.19367188 141.46632812 -18.80859375 141.19140625 C-23.70407826 138.52986833 -26.90309169 133.95254535 -28.875 128.8125 C-30.40195879 123.46814422 -31.24434904 117.45221354 -30 112 C-26.06727824 108.93923917 -22.97850206 108.61524796 -18.07421875 108.6015625 C-17.4137706 108.59760468 -16.75332245 108.59364685 -16.07286072 108.58956909 C-13.94396708 108.58385361 -11.81627166 108.60274115 -9.6875 108.625 C-8.96479919 108.62765869 -8.24209839 108.63031738 -7.49749756 108.63305664 C1.88005896 108.67376622 10.79577804 109.21623137 19.95703125 111.32421875 C27.96494364 113.10261264 35.57414071 111.67484596 43.5859375 110.5 C49.73743737 109.71068621 55.95173427 109.61766534 62.14746094 109.51782227 C68.85109112 109.32728138 75.69271771 108.71512127 81.05078125 104.31640625 C81.46714844 103.73761719 81.88351562 103.15882812 82.3125 102.5625 C83.01052734 101.64210937 83.01052734 101.64210937 83.72265625 100.703125 C84.14417969 100.14109375 84.56570313 99.5790625 85 99 C85.7425 98.278125 86.485 97.55625 87.25 96.8125 C91.2098384 92.7112388 91.27210062 89.11355801 91.25 83.5 C91.25515625 82.1903125 91.2603125 80.880625 91.265625 79.53125 C90.99488448 75.41029185 90.99488448 75.41029185 89 72 C86.4002106 70.06133076 86.4002106 70.06133076 83.3125 68.375 C82.29800781 67.78460938 81.28351563 67.19421875 80.23828125 66.5859375 C74.1480427 63.60326337 68.519388 62.75169613 61.8125 62.5625 C50.08341484 61.99582241 41.6376629 59.77147493 31.7109375 53.2578125 C26.61854084 50.0300775 21.10592188 47.62719941 15.62280273 45.14599609 C9.35572099 42.28310152 3.59206484 39.29853635 -1 34 C-1 33.34 -1 32.68 -1 32 C-2.06927734 31.57654297 -2.06927734 31.57654297 -3.16015625 31.14453125 C-18.51639175 24.95556701 -18.51639175 24.95556701 -23 20 C-24.168083 16.15219717 -24.46667971 14.08891932 -22.875 10.375 C-17.42857143 3.47619048 -17.42857143 3.47619048 -13 2 C-13 1.34 -13 0.68 -13 0 C-8.52745503 -1.49084832 -4.47254497 -1.49084832 0 0 Z " fill="#FFFFFF" transform="translate(211,1)"/>
<path d="M0 0 C5.33926667 0.88549414 9.14405074 2.4945238 13.0625 6.3125 C14.625 8.9375 14.625 8.9375 14.75 11.25 C13.67807454 13.81071081 12.6105129 15.28792332 10.8828125 17.41796875 C7.21652952 22.24522309 4.81907541 27.4142424 2.375 32.9375 C1.67274292 34.49235107 1.67274292 34.49235107 0.95629883 36.07861328 C-2.83988927 44.55159791 -6.42474422 53.11286327 -9.85058594 61.7421875 C-17.56257938 80.80702965 -17.56257938 80.80702965 -23.5 84.125 C-26.52051355 84.97862339 -29.08960338 84.89640858 -32.203125 84.83203125 C-42.20242977 85.317609 -49.87928615 91.88501068 -56.375 98.9375 C-58.27199622 101.08803271 -59.3066213 102.31888644 -59.625 105.19921875 C-58.72197314 113.9614012 -55.13411998 120.32517706 -49.375 126.9375 C-43.33798133 125.44289829 -38.95644005 122.08263127 -34 118.5 C-32.210061 117.22596437 -30.41969096 115.95253412 -28.62890625 114.6796875 C-27.74219238 114.04643555 -26.85547852 113.41318359 -25.94189453 112.76074219 C-22.30133729 110.174887 -18.6237897 107.645047 -14.9375 105.125 C-11.2857682 102.62706535 -7.63535051 100.1295348 -4.0234375 97.57421875 C1.7280326 93.52300076 7.55219917 89.65330563 13.5625 86 C14.17746338 85.62214355 14.79242676 85.24428711 15.42602539 84.85498047 C21.10269887 81.45997799 26.12347509 79.14790634 32.7421875 80.29296875 C36.23333523 81.48807119 37.9005591 83.8590205 39.625 86.9375 C44.68058914 97.65147307 48.13275041 109.06858773 51.81738281 120.30517578 C55.33861034 131.0143462 59.26931847 141.00377886 64.625 150.9375 C65.0900293 151.8351709 65.55505859 152.7328418 66.03417969 153.65771484 C68.56400429 158.52136155 71.33444883 163.42134099 75.625 166.9375 C80.23829654 168.25558473 83.97067044 167.9591821 88.625 166.9375 C88.51652671 171.38490475 87.36387028 173.56058967 84.3125 176.625 C77.49723451 182.9375 77.49723451 182.9375 74.625 182.9375 C74.625 183.5975 74.625 184.2575 74.625 184.9375 C71.30803325 187.68815535 69.18755848 188.87186818 64.875 189.375 C63.26625 189.1584375 63.26625 189.1584375 61.625 188.9375 C59.23916622 185.35874933 59.30971537 183.31887414 59 179.0625 C57.24138693 163.10044366 44.16969422 150.9122343 34.234375 139.09375 C32.625 136.9375 32.625 136.9375 32.625 134.9375 C32.00625 134.69 31.3875 134.4425 30.75 134.1875 C28.27431313 132.73121361 27.67374998 131.55937494 26.625 128.9375 C25.965 128.9375 25.305 128.9375 24.625 128.9375 C24.2125 128.463125 23.8 127.98875 23.375 127.5 C20.75583455 125.16145942 19.13562706 124.9375 15.625 124.9375 C5.0214601 129.96022943 -4.14899855 140.25031325 -12.0625 148.75 C-13.375 149.9375 -13.375 149.9375 -15.375 149.9375 C-15.6225 150.63875 -15.87 151.34 -16.125 152.0625 C-17.375 154.9375 -17.375 154.9375 -19.359375 157.375 C-22.47693859 161.97489287 -22.40887106 167.42247384 -22.875 172.8125 C-23.9029352 184.61203785 -26.5048578 191.27634526 -34.47265625 200.0546875 C-40.24194344 208.79746768 -39.78728013 218.4962152 -39.65625 228.57836914 C-39.62502107 230.99836751 -39.61525696 233.41771023 -39.609375 235.83789062 C-39.57173499 243.26976035 -39.32590084 250.55880435 -38.375 257.9375 C-37.24097946 274.41493216 -41.37437124 283.16572312 -51.09716797 296.19238281 C-51.99720773 297.42155442 -52.87453381 298.66751888 -53.73486328 299.92480469 C-54.90244987 301.62801681 -56.13399016 303.28701991 -57.375 304.9375 C-58.035 304.9375 -58.695 304.9375 -59.375 304.9375 C-60.035 306.5875 -60.695 308.2375 -61.375 309.9375 C-62.035 309.9375 -62.695 309.9375 -63.375 309.9375 C-63.6225 310.63875 -63.87 311.34 -64.125 312.0625 C-65.54680238 315.33264548 -67.24746288 318.078622 -69.375 320.9375 C-70.035 320.9375 -70.695 320.9375 -71.375 320.9375 C-71.78032959 321.80906738 -71.78032959 321.80906738 -72.19384766 322.69824219 C-73.37853964 324.94421055 -74.69581573 326.77973051 -76.2734375 328.765625 C-77.11648437 329.84263672 -77.11648437 329.84263672 -77.9765625 330.94140625 C-79.14825673 332.42538022 -80.32268933 333.90719663 -81.5 335.38671875 C-88.7880561 344.72142074 -91.52567482 351.9970235 -91.5 364 C-91.4987915 364.66394775 -91.49758301 365.32789551 -91.49633789 366.01196289 C-91.44263123 373.29541214 -91.05880582 380.56748742 -90.64306641 387.83813477 C-90.59456543 388.74619873 -90.54606445 389.6542627 -90.49609375 390.58984375 C-90.4489624 391.40445068 -90.40183105 392.21905762 -90.35327148 393.05834961 C-90.375 394.9375 -90.375 394.9375 -91.375 395.9375 C-96.32557736 396.31831364 -99.41676132 396.05611229 -103.375 392.9375 C-103.375 392.2775 -103.375 391.6175 -103.375 390.9375 C-103.96152344 390.70546875 -104.54804687 390.4734375 -105.15234375 390.234375 C-110.65350638 387.02455779 -115.25282437 378.80469144 -117.375 372.9375 C-117.91555483 368.67396897 -117.90313581 365.16055134 -116.1875 361.1875 C-114.08103101 358.57257298 -111.77758064 356.28287634 -109.375 353.9375 C-101.1059813 344.86174777 -99.3133202 335.69076417 -97.39648438 323.84375 C-95.19239998 311.1980941 -90.12080627 300.76942241 -83.375 289.9375 C-82.81039062 289.02871094 -82.24578125 288.11992187 -81.6640625 287.18359375 C-78.69387816 282.55445279 -78.69387816 282.55445279 -77.375 280.9375 C-76.715 280.9375 -76.055 280.9375 -75.375 280.9375 C-75.271875 280.40125 -75.16875 279.865 -75.0625 279.3125 C-74.375 276.9375 -74.375 276.9375 -72.875 274.25 C-69.02897697 265.75669913 -70.63649029 256.60935228 -71.625 247.625 C-71.74746094 246.38298828 -71.86992188 245.14097656 -71.99609375 243.86132812 C-73.55146122 229.17773522 -77.37494313 217.47245825 -84.3125 204.5625 C-91.67863277 190.83393775 -97.94472234 177.04425462 -99 161.3125 C-100.07728116 150.75932822 -105.22886014 141.89325485 -110.02246094 132.57714844 C-115.61506287 121.66248921 -120.26921601 110.48346224 -124.375 98.9375 C-124.71789062 98.091875 -125.06078125 97.24625 -125.4140625 96.375 C-128.7646168 87.35668563 -129.36784798 75.51250773 -126.12109375 66.4296875 C-124.40457012 63.37897496 -122.53207969 60.69266094 -120.375 57.9375 C-119.34439453 56.52404297 -119.34439453 56.52404297 -118.29296875 55.08203125 C-113.11511389 48.31816679 -107.14988658 43.05867411 -100.375 37.9375 C-99.72144531 37.3909375 -99.06789063 36.844375 -98.39453125 36.28125 C-95.20493252 34.15896381 -91.72457167 33.633555 -88.03125 32.78125 C-85.26924649 31.90390771 -83.62704675 30.71543165 -81.375 28.9375 C-80.715 28.9375 -80.055 28.9375 -79.375 28.9375 C-79.375 28.2775 -79.375 27.6175 -79.375 26.9375 C-77.84229429 25.58614497 -76.24723227 24.30496113 -74.625 23.0625 C-71.97872307 21.02749756 -69.50476762 19.0704888 -67.171875 16.6796875 C-65.375 14.9375 -65.375 14.9375 -63.375 14.9375 C-63.375 14.2775 -63.375 13.6175 -63.375 12.9375 C-58.60070441 8.37401746 -53.20030477 4.91835197 -46.40625 4.9453125 C-37.05097834 5.77289422 -30.71293722 10.21231611 -24.375 16.9375 C-22.01369238 20.64293657 -22.24729604 23.2468792 -22.81640625 27.4765625 C-23.74353078 31.56109716 -25.48431043 35.21767819 -27.375 38.9375 C-28.035 38.9375 -28.695 38.9375 -29.375 38.9375 C-29.4678125 39.80375 -29.4678125 39.80375 -29.5625 40.6875 C-30.70884174 43.86198483 -32.63456842 45.06598575 -35.375 46.9375 C-36.035 46.9375 -36.695 46.9375 -37.375 46.9375 C-37.375 47.5975 -37.375 48.2575 -37.375 48.9375 C-43.81 51.4125 -43.81 51.4125 -50.375 53.9375 C-49.88 57.8975 -49.88 57.8975 -49.375 61.9375 C-43.20197509 62.57254725 -43.20197509 62.57254725 -37.75 60.0625 C-32.1994234 52.75910974 -27.18382746 45.16769136 -22.25 37.4375 C-21.74718506 36.65487793 -21.24437012 35.87225586 -20.72631836 35.06591797 C-15.79295463 27.26375333 -11.29081551 19.76320494 -9.8125 10.5625 C-8.83461933 4.47940784 -7.20321331 -1.09943782 0 0 Z " fill="#FFFFFF" transform="translate(127.375,10.0625)"/>
<path d="M0 0 C5.01833633 0.71455853 7.89351165 2.7999352 11.75 6 C11.5 7.875 11.5 7.875 10.75 10 C6.77050656 12.73426901 2.3965546 12.66969915 -2.25 12 C-5.3125 10.3125 -5.3125 10.3125 -7.25 8 C-7.75 5.4375 -7.75 5.4375 -7.25 3 C-5.01474505 0.08175048 -3.61800494 -0.40481174 0 0 Z " fill="#FFFFFF" transform="translate(120.25,90)"/>
</svg>
