<?xml version="1.0" encoding="UTF-8"?>
<svg version="1.1" xmlns="http://www.w3.org/2000/svg" width="209" height="201">
<path d="M0 0 C3.5002292 3.5056983 5.0687625 7.36160963 7 11.87890625 C7.41362793 12.81831055 7.82725586 13.75771484 8.25341797 14.72558594 C9.16970236 16.81333102 10.07933106 18.90400586 10.98339844 20.99707031 C12.35384481 24.16595178 13.73815538 27.32818652 15.12860107 30.48831177 C16.63248071 33.90795681 18.12892977 37.33083921 19.625 40.75390625 C20.06549683 41.75946564 20.06549683 41.75946564 20.51489258 42.78533936 C21.34984642 44.69503557 22.17962792 46.60689136 23.0078125 48.51953125 C23.72928467 50.17903809 23.72928467 50.17903809 24.46533203 51.87207031 C25.5 54.50390625 25.5 54.50390625 25.5 56.50390625 C26.41716797 56.55506592 27.33433594 56.60622559 28.27929688 56.65893555 C38.65778232 57.26932119 49.00795049 58.08124237 59.35742188 59.06860352 C61.13285189 59.23509109 62.90892733 59.39482189 64.68554688 59.5480957 C67.30246688 59.77437613 69.91667447 60.02166042 72.53125 60.2734375 C73.31471802 60.33715042 74.09818604 60.40086334 74.90539551 60.46650696 C81.64185515 61.15540539 87.21414743 63.16090737 92 68.06640625 C94.33665051 73.42123033 94.61619757 78.89719284 92.875 84.5234375 C90.29247971 89.63083253 85.82770953 92.91978943 81.5 96.50390625 C79.82674627 97.99655481 78.16030124 99.49686359 76.5 101.00390625 C72.88868258 104.26290002 69.2481153 107.48318806 65.578125 110.67578125 C62.28285981 113.57462356 59.04150298 116.53298316 55.796875 119.48828125 C53.5 121.50390625 53.5 121.50390625 51.34889221 122.84272766 C49.27899349 124.33299808 49.27899349 124.33299808 49.25547791 126.65080261 C49.4363369 127.86235771 49.4363369 127.86235771 49.62084961 129.09838867 C49.74902069 129.98827484 49.87719177 130.87816101 50.00924683 131.79501343 C50.75144751 135.89186333 51.6012549 139.94218213 52.56640625 143.9921875 C52.97376154 145.76877611 53.38064802 147.54547228 53.78710938 149.32226562 C54.422222 152.06805696 55.06161569 154.81266385 55.7097168 157.55541992 C61.95602124 184.10638438 61.95602124 184.10638438 58.19360352 190.84301758 C55.20613389 194.66817105 51.91462208 197.13727694 47.04150391 197.87719727 C39.62290426 198.06505253 35.08139253 196.36885532 28.875 192.44140625 C27.99980713 191.91571045 27.12461426 191.39001465 26.22290039 190.84838867 C23.30160448 189.08845171 20.40170614 187.29593159 17.5 185.50390625 C14.10477529 183.44321212 10.70450809 181.39142558 7.30126953 179.34399414 C5.08789232 178.00983114 2.87907908 176.66806205 0.67529297 175.31811523 C-0.33259277 174.70524658 -1.34047852 174.09237793 -2.37890625 173.4609375 C-3.2716626 172.9141333 -4.16441895 172.3673291 -5.08422852 171.80395508 C-8.14352941 170.13008033 -8.14352941 170.13008033 -11.5 169.50390625 C-14.10563929 170.54373116 -14.10563929 170.54373116 -16.8046875 172.23046875 C-17.85253418 172.84462646 -18.90038086 173.45878418 -19.97998047 174.09155273 C-21.66051514 175.10004272 -21.66051514 175.10004272 -23.375 176.12890625 C-24.54099964 176.81269622 -25.70783944 177.49505544 -26.87548828 178.17602539 C-32.5396606 181.49144257 -38.14144678 184.8880379 -43.6875 188.3984375 C-44.64930176 188.99640137 -45.61110352 189.59436523 -46.60205078 190.21044922 C-48.39649857 191.33059668 -50.17737555 192.47291325 -51.94091797 193.64111328 C-58.38158835 197.64299735 -63.96430353 198.54156723 -71.5 197.50390625 C-75.99167626 195.37627013 -78.56291663 193.09173528 -80.5 188.50390625 C-82.14214597 181.26147317 -80.88661644 174.97837804 -79.19140625 167.86328125 C-78.94583481 166.7780719 -78.70026337 165.69286255 -78.44725037 164.57476807 C-77.66585068 161.13122359 -76.86527789 157.69252376 -76.0625 154.25390625 C-75.26647626 150.80038048 -74.4745997 147.34598725 -73.6884613 143.89019775 C-73.19969657 141.74625773 -72.70471265 139.60372366 -72.20277405 137.46282959 C-71.97931808 136.49121887 -71.75586212 135.51960815 -71.52563477 134.51855469 C-71.32720474 133.66855896 -71.12877472 132.81856323 -70.92433167 131.94281006 C-70.48004629 129.38921959 -70.32912272 127.09014397 -70.5 124.50390625 C-71.8746603 122.70384344 -71.8746603 122.70384344 -73.875 121.25390625 C-74.60460937 120.6609375 -75.33421875 120.06796875 -76.0859375 119.45703125 C-76.88257813 118.8125 -77.67921875 118.16796875 -78.5 117.50390625 C-80.17531071 116.01356676 -81.84178358 114.51324256 -83.5 113.00390625 C-87.11404058 109.742455 -90.75789354 106.5203147 -94.4296875 103.32421875 C-97.70991577 100.44009351 -100.9414634 97.50259403 -104.16796875 94.55859375 C-106.04029534 92.90893916 -107.91763881 91.45740438 -109.9375 90.00390625 C-113.44381829 86.58310792 -114.81734092 83.3374464 -115.5 78.50390625 C-115.20058852 72.91489194 -113.69254243 68.35651281 -109.5 64.50390625 C-103.50446921 61.34160955 -97.78447182 60.72227333 -91.08984375 60.1171875 C-90.00417618 60.01045212 -88.91850861 59.90371674 -87.79994202 59.79374695 C-85.51354248 59.57097051 -83.22660945 59.35361039 -80.93920898 59.14135742 C-77.44462632 58.81706756 -73.95180769 58.47744011 -70.45898438 58.13476562 C-68.23185668 57.91968214 -66.00464558 57.70546015 -63.77734375 57.4921875 C-62.73658188 57.39222977 -61.69582001 57.29227203 -60.6235199 57.18928528 C-55.89859979 56.75244005 -51.25156457 56.376032 -46.5 56.50390625 C-46.33088608 55.96601974 -46.16177216 55.42813324 -45.98753357 54.87394714 C-44.10796835 49.05037878 -41.87251947 43.46632175 -39.41015625 37.8671875 C-39.02435898 36.98411423 -38.63856171 36.10104095 -38.24107361 35.19120789 C-37.43038886 33.33907298 -36.61766272 31.48783036 -35.80297852 29.63745117 C-34.56263991 26.81672442 -33.3327622 23.99159079 -32.10351562 21.16601562 C-31.31052502 19.35779686 -30.51692598 17.54984477 -29.72265625 15.7421875 C-29.35898453 14.90456375 -28.99531281 14.06694 -28.62062073 13.20393372 C-23.00349914 0.51772292 -23.00349914 0.51772292 -16.5 -2.49609375 C-10.94715748 -4.50128688 -4.9307711 -2.95075833 0 0 Z " fill="#FFD505" transform="translate(115.5,3.49609375)"/>
<path d="M0 0 C2.4375 0.0625 2.4375 0.0625 5 1 C7.44764547 4.56886142 9.13644366 8.39571017 10.84765625 12.359375 C11.63172852 14.15568359 11.63172852 14.15568359 12.43164062 15.98828125 C13.25256075 17.87898992 14.07136051 19.77056519 14.88696289 21.66357422 C15.68070092 23.50212825 16.48279922 25.33706597 17.28515625 27.171875 C17.75832275 28.2659668 18.23148926 29.36005859 18.71899414 30.48730469 C19.74882889 33.12180019 19.74882889 33.12180019 22 34 C23.33771426 34.18221298 24.68179987 34.31926702 26.02734375 34.4296875 C26.81947266 34.50316406 27.61160156 34.57664063 28.42773438 34.65234375 C30.09636447 34.80037786 31.76566499 34.941046 33.43554688 35.07421875 C34.22896484 35.15027344 35.02238281 35.22632813 35.83984375 35.3046875 C36.92833618 35.3972583 36.92833618 35.3972583 38.03881836 35.49169922 C40.47423932 36.12291376 41.47603293 37.02172969 43 39 C42.74853421 41.13745922 42.54074221 42.45925779 41 44 C32.73157565 44.50719293 22.84833442 44.99525806 15 42 C11.33927365 36.61589369 8.931702 30.48427434 6.27441406 24.56225586 C5.37778368 22.56868922 4.47038754 20.58025727 3.5625 18.59179688 C2.98631134 17.31280065 2.41076877 16.03351312 1.8359375 14.75390625 C1.31563965 13.60220947 0.7953418 12.4505127 0.25927734 11.26391602 C-0.96079335 8.10161957 -1.75273098 5.37964853 -2 2 C-1.34 1.34 -0.68 0.68 0 0 Z " fill="#FFFDF4" transform="translate(110,41)"/>
</svg>
