<svg width="60" height="42" viewBox="0 0 60 42" fill="none" xmlns="http://www.w3.org/2000/svg">
<g id="YouTube svg" clip-path="url(#clip0_475_11429)">
<g id="g10">
<g id="g12">
<path id="path14" d="M58.267 6.90228C57.5885 4.38211 55.5896 2.39758 53.0509 1.72405C48.4499 0.500004 30 0.500004 30 0.500004C30 0.500004 11.5502 0.500004 6.94907 1.72405C4.41063 2.39758 2.41132 4.38211 1.73288 6.90228C0.5 11.4699 0.5 21 0.5 21C0.5 21 0.5 30.53 1.73288 35.098C2.41132 37.6179 4.41063 39.6024 6.94907 40.2762C11.5502 41.5 30 41.5 30 41.5C30 41.5 48.4499 41.5 53.0509 40.2762C55.5896 39.6024 57.5885 37.6179 58.267 35.098C59.5 30.53 59.5 21 59.5 21C59.5 21 59.5 11.4699 58.267 6.90228Z" fill="#ED1D24"/>
<path id="path16" d="M23.9658 29.6526L39.3863 21.0004L23.9658 12.3474V29.6526Z" fill="white"/>
</g>
</g>
</g>
<defs>
<clipPath id="clip0_475_11429">
<rect width="59" height="41" fill="white" transform="translate(0.5 0.5)"/>
</clipPath>
</defs>
</svg>
